<svg width="16" height="15" viewBox="0 0 16 15" fill="none" xmlns="http://www.w3.org/2000/svg">
<path d="M1.16683 3.50683H8.70516H8.01016H8.26933H1.16683ZM1.4835 2.6735H12.5002L11.3918 1.3435C11.3379 1.29016 11.2763 1.24739 11.2068 1.21516C11.1374 1.18294 11.0652 1.16683 10.9902 1.16683H2.9935C2.91905 1.16683 2.84683 1.18294 2.77683 1.21516C2.70683 1.24739 2.64572 1.29016 2.5935 1.3435L1.4835 2.6735ZM5.3335 7.80183L7.00016 6.9685L8.66683 7.80183V3.50683H5.3335V7.80183ZM8.69183 13.6668H1.681C1.31044 13.6668 0.993496 13.5349 0.730163 13.271C0.466829 13.0071 0.334607 12.6907 0.333496 12.3218V3.2385C0.333496 3.08183 0.359329 2.93044 0.410996 2.78433C0.462663 2.63822 0.540441 2.50488 0.64433 2.38433L1.94266 0.825996C2.06322 0.667107 2.21405 0.54544 2.39516 0.460996C2.57627 0.376552 2.77127 0.334052 2.98016 0.333496H10.9885C11.1974 0.333496 11.3943 0.375996 11.5793 0.460996C11.7643 0.54544 11.9185 0.667107 12.0418 0.825996L13.356 2.41683C13.4599 2.54183 13.5377 2.6785 13.5893 2.82683C13.641 2.97461 13.6668 3.12794 13.6668 3.28683V6.42516C13.5524 6.39183 13.431 6.36877 13.3027 6.356C13.1749 6.34322 13.0507 6.33683 12.9302 6.33683H12.8335V3.50683H9.50016V7.80016C9.34516 7.90683 9.19127 8.05016 9.0385 8.23016C8.88572 8.41016 8.77461 8.58627 8.70516 8.7585L7.00016 7.9135L4.50016 9.1635V3.50683H1.16683V12.321C1.16683 12.4704 1.21488 12.5932 1.311 12.6893C1.40711 12.7854 1.53016 12.8335 1.68016 12.8335H8.26933C8.31933 12.9891 8.38155 13.1346 8.456 13.2702C8.53044 13.4052 8.60933 13.5374 8.69266 13.6668M12.4968 14.1635V11.6635H9.99683V10.8302H12.4968V8.33016H13.3302V10.8302H15.8302V11.6635H13.3302V14.1635H12.4968Z" fill="#667085"/>
</svg>
