<svg width="9" height="14" viewBox="0 0 9 14" fill="none" xmlns="http://www.w3.org/2000/svg">
<path d="M1.50647 0.354004C1.18657 0.354004 0.879774 0.480432 0.653573 0.705476C0.427371 0.930519 0.300293 1.23574 0.300293 1.554V11.954C0.300293 12.2723 0.427371 12.5775 0.653573 12.8025C0.879774 13.0276 1.18657 13.154 1.50647 13.154H7.13528C7.45517 13.154 7.76197 13.0276 7.98817 12.8025C8.21437 12.5775 8.34145 12.2723 8.34145 11.954V1.554C8.34145 1.23574 8.21437 0.930519 7.98817 0.705476C7.76197 0.480432 7.45517 0.354004 7.13528 0.354004H1.50647ZM3.51676 9.954H5.12499C5.23162 9.954 5.33388 9.99615 5.40928 10.0712C5.48468 10.1462 5.52704 10.2479 5.52704 10.354C5.52704 10.4601 5.48468 10.5618 5.40928 10.6368C5.33388 10.7119 5.23162 10.754 5.12499 10.754H3.51676C3.41012 10.754 3.30786 10.7119 3.23246 10.6368C3.15706 10.5618 3.1147 10.4601 3.1147 10.354C3.1147 10.2479 3.15706 10.1462 3.23246 10.0712C3.30786 9.99615 3.41012 9.954 3.51676 9.954Z" fill="#585858"/>
</svg>
