<svg width="13" height="14" viewBox="0 0 13 14" fill="none" xmlns="http://www.w3.org/2000/svg">
<path d="M3.07496 0.258088C3.77671 0.766889 4.32312 1.46137 4.78972 2.12593L5.06108 2.51929L5.3171 2.89493C5.44516 3.08106 5.49991 3.30756 5.47093 3.53127C5.44194 3.75498 5.33125 3.96026 5.15993 4.10799L3.96212 4.99305C3.90425 5.03462 3.86351 5.09568 3.84748 5.16488C3.83144 5.23408 3.8412 5.30672 3.87494 5.36931C4.1463 5.85978 4.62886 6.59031 5.18142 7.14003C5.73397 7.68975 6.50325 8.20161 7.03063 8.50213C7.09675 8.53905 7.17458 8.54938 7.24812 8.53097C7.32166 8.51257 7.38532 8.46684 7.42601 8.40317L8.20572 7.22249C8.34907 7.03305 8.56054 6.90613 8.79583 6.86833C9.03113 6.83053 9.272 6.88478 9.468 7.0197L9.87505 7.30006C10.6357 7.82535 11.4529 8.42211 12.0779 9.21799C12.177 9.34491 12.2401 9.49598 12.2605 9.65542C12.2809 9.81487 12.2579 9.97683 12.1939 10.1244C11.6801 11.3173 10.3797 12.3331 9.02718 12.2836L8.843 12.2732L8.69995 12.261L8.54155 12.2427L8.36903 12.2195L8.18178 12.1889L8.08355 12.1706L7.87726 12.1266L7.76921 12.1022L7.5445 12.0448L7.30813 11.9776L7.06132 11.8982C5.92798 11.5158 4.4895 10.7645 3.01357 9.29617C1.53764 7.8278 0.783098 6.39729 0.398767 5.26974L0.318954 5.0242L0.251419 4.78904L0.193708 4.56549L0.14582 4.35415C0.132005 4.28795 0.119111 4.22157 0.107142 4.15503L0.0764443 3.96873L0.0518864 3.79709L0.0340819 3.63951L0.0218029 3.49719L0.0119798 3.31395C-0.0377499 1.97262 0.994296 0.669771 2.18781 0.16097C2.33146 0.0992587 2.48877 0.0757632 2.6443 0.0927894C2.79983 0.109816 2.94824 0.166778 3.07496 0.258088ZM8.06943 2.45393L8.14064 2.46187C8.58754 2.5403 8.99801 2.75747 9.31322 3.08225C9.62843 3.40704 9.83219 3.82277 9.89531 4.26986C9.91781 4.4245 9.87988 4.58184 9.78934 4.70952C9.69879 4.83719 9.5625 4.92548 9.40851 4.95623C9.25452 4.98698 9.09455 4.95785 8.96149 4.87483C8.82843 4.7918 8.73242 4.66121 8.6932 4.5099L8.67908 4.43966C8.65438 4.26442 8.57919 4.10005 8.46262 3.9664C8.34604 3.83275 8.19306 3.73555 8.02215 3.68654L7.92699 3.66516C7.77283 3.63797 7.63493 3.55322 7.54149 3.42823C7.44806 3.30324 7.40616 3.14746 7.42435 2.99275C7.44254 2.83804 7.51946 2.69609 7.63937 2.59593C7.75928 2.49578 7.91312 2.44498 8.06943 2.45393ZM8.07434 0.597085C9.05131 0.597085 9.98827 0.9832 10.6791 1.67049C11.3699 2.35778 11.758 3.28994 11.758 4.26192C11.7578 4.4176 11.6979 4.56734 11.5905 4.68054C11.4831 4.79375 11.3363 4.86187 11.1801 4.87099C11.0238 4.88012 10.87 4.82955 10.75 4.72963C10.63 4.62971 10.5529 4.48797 10.5344 4.33338L10.5301 4.26192C10.5301 3.64168 10.2929 3.04468 9.86673 2.592C9.44055 2.13931 8.85728 1.86482 8.23519 1.82419L8.07434 1.8187C7.91151 1.8187 7.75535 1.75434 7.64021 1.63979C7.52507 1.52525 7.46039 1.36989 7.46039 1.20789C7.46039 1.04589 7.52507 0.890534 7.64021 0.775986C7.75535 0.661438 7.91151 0.597085 8.07434 0.597085Z" fill="#585858"/>
</svg>
