<svg width="16" height="16" viewBox="0 0 16 16" fill="none" xmlns="http://www.w3.org/2000/svg">
<path d="M8.5 4.66663C8.5 4.53402 8.44732 4.40684 8.35355 4.31307C8.25979 4.2193 8.13261 4.16663 8 4.16663C7.86739 4.16663 7.74022 4.2193 7.64645 4.31307C7.55268 4.40684 7.5 4.53402 7.5 4.66663V7.99996C7.49996 8.08473 7.52148 8.16812 7.56253 8.24229C7.60358 8.31646 7.66282 8.37897 7.73467 8.42396L9.73467 9.67396C9.84712 9.74433 9.98292 9.76715 10.1122 9.73739C10.1762 9.72266 10.2367 9.69546 10.2902 9.65735C10.3437 9.61925 10.3892 9.57097 10.424 9.51529C10.4588 9.45961 10.4824 9.39761 10.4933 9.33284C10.5041 9.26806 10.5022 9.20178 10.4874 9.13777C10.4727 9.07376 10.4455 9.01327 10.4074 8.95977C10.3693 8.90627 10.321 8.8608 10.2653 8.82596L8.5 7.72263V4.66663Z" fill="#008B0E"/>
<path fill-rule="evenodd" clip-rule="evenodd" d="M8.00002 2.16663C6.45292 2.16663 4.96919 2.78121 3.87523 3.87517C2.78127 4.96913 2.16669 6.45286 2.16669 7.99996C2.16669 9.54706 2.78127 11.0308 3.87523 12.1247C4.96919 13.2187 6.45292 13.8333 8.00002 13.8333C9.54712 13.8333 11.0308 13.2187 12.1248 12.1247C13.2188 11.0308 13.8334 9.54706 13.8334 7.99996C13.8334 6.45286 13.2188 4.96913 12.1248 3.87517C11.0308 2.78121 9.54712 2.16663 8.00002 2.16663ZM3.16669 7.99996C3.16669 7.36524 3.2917 6.73673 3.5346 6.15032C3.7775 5.56392 4.13352 5.03109 4.58234 4.58228C5.03115 4.13346 5.56398 3.77744 6.15038 3.53454C6.73679 3.29164 7.3653 3.16663 8.00002 3.16663C8.63474 3.16663 9.26325 3.29164 9.84966 3.53454C10.4361 3.77744 10.9689 4.13346 11.4177 4.58228C11.8665 5.03109 12.2225 5.56392 12.4654 6.15032C12.7083 6.73673 12.8334 7.36524 12.8334 7.99996C12.8334 9.28184 12.3241 10.5112 11.4177 11.4176C10.5113 12.3241 9.2819 12.8333 8.00002 12.8333C6.71814 12.8333 5.48876 12.3241 4.58234 11.4176C3.67591 10.5112 3.16669 9.28184 3.16669 7.99996Z" fill="#008B0E"/>
</svg>
