<svg width="17" height="17" viewBox="0 0 17 17" fill="none" xmlns="http://www.w3.org/2000/svg">
<path d="M11.7295 3.50664L13.4937 5.27081M12.8637 1.95248L8.09116 6.72498C7.84383 6.97068 7.67553 7.28466 7.60783 7.62664L7.16699 9.83331L9.37366 9.39165C9.71533 9.32331 10.0287 9.15581 10.2753 8.90915L15.0478 4.13664C15.1912 3.99323 15.305 3.82297 15.3826 3.63559C15.4602 3.44821 15.5002 3.24738 15.5002 3.04456C15.5002 2.84174 15.4602 2.64091 15.3826 2.45353C15.305 2.26615 15.1912 2.09589 15.0478 1.95248C14.9044 1.80906 14.7342 1.6953 14.5468 1.61769C14.3594 1.54007 14.1586 1.50012 13.9557 1.50012C13.7529 1.50012 13.5521 1.54007 13.3647 1.61769C13.1773 1.6953 13.0071 1.80906 12.8637 1.95248Z" stroke="#8D8D90" stroke-width="2" stroke-linecap="round" stroke-linejoin="round"/>
<path d="M13.8335 11.5V14C13.8335 14.442 13.6579 14.8659 13.3453 15.1785C13.0328 15.491 12.6089 15.6666 12.1668 15.6666H3.00016C2.55814 15.6666 2.13421 15.491 1.82165 15.1785C1.50909 14.8659 1.3335 14.442 1.3335 14V4.83329C1.3335 4.39127 1.50909 3.96734 1.82165 3.65478C2.13421 3.34222 2.55814 3.16663 3.00016 3.16663H5.50016" stroke="#8D8D90" stroke-width="2" stroke-linecap="round" stroke-linejoin="round"/>
</svg>
