<svg width="16" height="17" viewBox="0 0 16 17" fill="none" xmlns="http://www.w3.org/2000/svg">
<path d="M11.3993 11.1191C11.332 11.236 11.2348 11.3329 11.1176 11.3998C11.0005 11.4668 10.8677 11.5013 10.7328 11.5H5.26714C5.13224 11.5013 4.99941 11.4668 4.88227 11.3998C4.76514 11.3329 4.66792 11.236 4.60058 11.1191C4.53487 11.0066 4.50024 10.8787 4.50024 10.7485C4.50024 10.6182 4.53487 10.4903 4.60058 10.3778L7.33277 5.6319C7.40106 5.51562 7.49855 5.41921 7.61558 5.35223C7.73261 5.28524 7.86511 5.25 7.99995 5.25C8.1348 5.25 8.2673 5.28524 8.38433 5.35223C8.50136 5.41921 8.59885 5.51562 8.66714 5.6319L11.4 10.3778C11.4656 10.4904 11.5001 10.6183 11.5 10.7485C11.4999 10.8788 11.4651 11.0067 11.3993 11.1191Z" fill="#FF0000"/>
<rect x="0.5" y="1" width="15" height="15" rx="3.5" stroke="#FF0000"/>
</svg>
