<svg width="38" height="38" viewBox="0 0 38 38" fill="none" xmlns="http://www.w3.org/2000/svg">
<path d="M30.4478 24.1615L26.4261 23.7023C25.9533 23.6468 25.4739 23.6991 25.0242 23.8554C24.5744 24.0117 24.166 24.2679 23.8295 24.6048L20.9161 27.5181C16.4217 25.2317 12.7684 21.5784 10.482 17.084L13.4111 14.1548C14.092 13.474 14.4245 12.524 14.3136 11.5581L13.8545 7.56813C13.765 6.7956 13.3945 6.083 12.8134 5.56615C12.2323 5.0493 11.4813 4.76436 10.7036 4.76563H7.96448C6.17531 4.76563 4.68698 6.25396 4.79781 8.04313C5.63698 21.5648 16.4511 32.3631 29.957 33.2023C31.7461 33.3131 33.2345 31.8248 33.2345 30.0356V27.2965C33.2503 25.6973 32.047 24.3515 30.4478 24.1615Z" fill="#008BFF"/>
</svg>
