<svg width="12" height="12" viewBox="0 0 12 12" fill="none" xmlns="http://www.w3.org/2000/svg">
<path d="M10.956 10.7372C10.956 11.436 8.67007 11.9998 5.84872 11.9998C3.02737 11.9998 0.741394 11.4337 0.741394 10.7372C0.741394 10.0384 3.02737 9.47461 5.84872 9.47461C8.67007 9.47461 10.956 10.0408 10.956 10.7372Z" fill="url(#paint0_radial_249_2749)"/>
<path d="M7.93605 10.1699C7.5665 11.0891 5.98645 11.0606 5.98645 11.0606C4.34955 11.0606 3.92315 10.4329 3.82129 10.2007C4.46089 10.3879 5.19761 10.4968 6.04331 10.4968C6.04331 10.4968 6.82504 10.5229 7.81761 10.1983C7.89815 10.1818 7.93605 10.1699 7.93605 10.1699Z" fill="url(#paint1_radial_249_2749)"/>
<path d="M11.6863 5.38477C11.6863 5.59086 11.672 5.79695 11.646 5.99594C11.582 6.47919 11.4423 6.94113 11.2409 7.37227C11.2006 7.45518 11.1604 7.53572 11.1154 7.61626C11.0111 7.81051 10.8903 8.00002 10.76 8.18006C10.6937 8.27244 10.6226 8.36246 10.5492 8.45248C9.49267 9.71983 7.80128 10.5395 5.89433 10.5395C4.02764 10.5395 2.36468 9.753 1.30579 8.53302C1.22525 8.44063 1.14944 8.34588 1.07601 8.25112C0.936243 8.06398 0.808325 7.86973 0.694618 7.66601C0.64724 7.58073 0.602229 7.49545 0.559589 7.4078C0.348758 6.96481 0.204257 6.49341 0.137928 5.99831C0.11187 5.79695 0.0976562 5.59323 0.0976562 5.38713L11.6863 5.38477Z" fill="url(#paint2_radial_249_2749)"/>
<path d="M11.2409 7.36914C11.2006 7.45205 11.1603 7.53259 11.1153 7.61313C9.10889 8.48015 7.27537 8.75968 5.74033 8.75968C4.8212 8.75968 4.01104 8.66018 3.33354 8.52279C2.19647 8.29301 1.29156 7.94004 0.6946 7.65814C0.647222 7.57286 0.60221 7.48759 0.55957 7.39994C1.13284 7.68657 2.10409 8.09876 3.37381 8.35223C5.19549 8.72177 7.99551 8.82601 11.2409 7.36914Z" fill="url(#paint3_radial_249_2749)"/>
<path d="M10.7571 8.17969C10.6908 8.27207 10.6197 8.36209 10.5463 8.45211C8.76013 9.13909 7.12797 9.36887 5.73743 9.36887C4.8183 9.36887 4.00814 9.26938 3.33064 9.13198C2.52995 8.9709 1.84535 8.74822 1.30287 8.53265C1.22233 8.44027 1.14653 8.34551 1.07309 8.25076C1.64636 8.49712 2.42809 8.77428 3.37328 8.96379C5.10494 9.30728 7.71782 9.41862 10.7571 8.17969Z" fill="url(#paint4_radial_249_2749)"/>
<path d="M1.36424 6.8169C1.36187 6.78137 1.29318 6.75768 1.20316 6.75531C1.27186 6.69846 1.30976 6.63686 1.29081 6.60607C1.27186 6.57527 1.20079 6.58712 1.12025 6.62739C1.15341 6.54448 1.15815 6.47341 1.12735 6.45683C1.09656 6.44025 1.0397 6.48289 0.987589 6.55632C0.978114 6.46631 0.947319 6.40234 0.911786 6.40234C0.885728 6.40234 0.862038 6.43788 0.847825 6.48999C0.81466 6.44499 0.781496 6.41893 0.757807 6.4284C0.724642 6.44025 0.717537 6.51131 0.738857 6.59896C0.665422 6.54685 0.596724 6.52553 0.573036 6.55158C0.549347 6.57764 0.577774 6.64397 0.636997 6.7103C0.546979 6.70083 0.478278 6.71267 0.468803 6.7482C0.459327 6.78373 0.51618 6.82638 0.60146 6.85717C0.518549 6.89034 0.461695 6.93534 0.471171 6.97088C0.480646 7.00404 0.551715 7.01825 0.639364 7.00404C0.582511 7.07274 0.554082 7.13907 0.577771 7.16513C0.60146 7.19118 0.670158 7.1675 0.741225 7.11538C0.722274 7.20303 0.73175 7.2741 0.764914 7.28594C0.798079 7.29779 0.847827 7.24567 0.885729 7.16276C0.911787 7.24804 0.952056 7.30726 0.987589 7.30252C1.02312 7.29542 1.04207 7.22672 1.03734 7.1367C1.1013 7.20066 1.16526 7.23383 1.19368 7.21014C1.22211 7.18882 1.20553 7.11775 1.15815 7.04194C1.24343 7.068 1.3145 7.06563 1.32871 7.03247C1.34293 6.99931 1.29555 6.94719 1.21737 6.90218C1.30502 6.8856 1.36661 6.85244 1.36424 6.8169ZM0.909418 6.86428C0.907049 6.86428 0.907049 6.86428 0.909418 6.86428C0.907049 6.86191 0.904679 6.86428 0.904679 6.86191L0.902311 6.85954C0.902311 6.85954 0.902312 6.8548 0.899943 6.8548C0.899943 6.8548 0.899942 6.85243 0.902311 6.85243C0.902311 6.85243 0.904679 6.85006 0.904679 6.84769L0.907046 6.84533C0.907046 6.84533 0.907049 6.84533 0.909418 6.84533H0.914153C0.914153 6.84533 0.914157 6.84533 0.916526 6.84769L0.918893 6.85007C0.918893 6.85007 0.921261 6.85007 0.921261 6.85243V6.85717L0.918893 6.85954L0.916526 6.86191C0.916526 6.86191 0.916522 6.86428 0.914153 6.86428C0.911785 6.86428 0.911787 6.86428 0.909418 6.86428Z" fill="url(#paint5_radial_249_2749)"/>
<path d="M1.03263 6.8453C1.03263 6.83582 1.01368 6.82871 0.989991 6.82871C1.00894 6.8145 1.01841 6.79792 1.01368 6.79081C1.00894 6.7837 0.989989 6.78607 0.968669 6.79555C0.978145 6.77423 0.978143 6.75528 0.971037 6.75054C0.96393 6.7458 0.947351 6.75765 0.933137 6.7766C0.930768 6.75291 0.923659 6.73633 0.914183 6.73633C0.907076 6.73633 0.902339 6.7458 0.897601 6.76002C0.890494 6.74817 0.881018 6.74106 0.873911 6.74343C0.864436 6.7458 0.864438 6.76475 0.869176 6.78844C0.850225 6.77423 0.831275 6.76949 0.826537 6.7766C0.81943 6.78371 0.828906 6.80029 0.843119 6.81924C0.81943 6.81687 0.800477 6.81924 0.798108 6.82871C0.795739 6.83819 0.809955 6.85003 0.833644 6.85714C0.812324 6.86661 0.795739 6.87846 0.798108 6.88794C0.800477 6.89741 0.81943 6.89978 0.843119 6.89741C0.828906 6.91636 0.81943 6.93294 0.826537 6.94005C0.833644 6.94716 0.850224 6.94005 0.871544 6.92584C0.866806 6.94953 0.869177 6.96848 0.876284 6.97085C0.885759 6.97321 0.897603 6.959 0.909448 6.93768C0.916555 6.96137 0.926029 6.97559 0.935505 6.97559C0.94498 6.97322 0.949716 6.95426 0.947347 6.93057C0.96393 6.94716 0.980512 6.95664 0.987619 6.94953C0.994726 6.94479 0.989988 6.92584 0.978144 6.90452C1.00183 6.91162 1.02079 6.91163 1.02316 6.90215C1.02789 6.89267 1.01368 6.87846 0.992359 6.86661C1.01605 6.86424 1.035 6.85477 1.03263 6.8453ZM0.914183 6.85714C0.911814 6.85477 0.911815 6.85477 0.911815 6.85477C0.911815 6.85714 0.911814 6.85477 0.914183 6.85714C0.911814 6.85477 0.911815 6.85477 0.911815 6.85477C0.916553 6.85477 0.916552 6.85477 0.914183 6.85714C0.916552 6.85714 0.916552 6.85714 0.914183 6.85714Z" fill="url(#paint6_radial_249_2749)"/>
<path d="M2.77393 7.35247C2.77156 7.31694 2.70286 7.29325 2.61284 7.29088C2.68154 7.23403 2.71944 7.17244 2.70049 7.14164C2.68154 7.11084 2.61048 7.12269 2.52993 7.16296C2.5631 7.08005 2.56784 7.00661 2.53704 6.99003C2.50625 6.97345 2.44939 7.01609 2.39728 7.08953C2.38543 6.99951 2.357 6.93555 2.32147 6.93555C2.29541 6.93555 2.27172 6.97108 2.25751 7.02319C2.22672 6.97818 2.19118 6.95213 2.16749 6.9616C2.13433 6.97345 2.12722 7.04452 2.14854 7.13217C2.0751 7.08005 2.00641 7.05873 1.98272 7.08479C1.95903 7.11084 1.98746 7.17717 2.04668 7.24587C1.95666 7.23403 1.88797 7.24824 1.87849 7.28377C1.87138 7.31931 1.92587 7.36195 2.01115 7.39511C1.92824 7.42828 1.87138 7.47329 1.88086 7.50882C1.89033 7.54198 1.9614 7.5562 2.04905 7.54198C1.99219 7.61068 1.96377 7.67701 1.98746 7.70307C2.01115 7.72912 2.07984 7.70543 2.15328 7.65332C2.13433 7.74097 2.14144 7.81204 2.17697 7.82388C2.21013 7.83572 2.25988 7.78361 2.29778 7.7007C2.32384 7.78598 2.36411 7.8452 2.39964 7.84046C2.43518 7.83336 2.45413 7.76466 2.44939 7.67464C2.51335 7.7386 2.57731 7.77177 2.60574 7.74808C2.63416 7.72676 2.61758 7.65569 2.5702 7.57988C2.65548 7.60594 2.72655 7.60357 2.74313 7.57041C2.75735 7.53724 2.70997 7.48513 2.63179 7.44012C2.7147 7.42354 2.77629 7.38801 2.77393 7.35247ZM2.3191 7.40222C2.31673 7.39985 2.31437 7.39985 2.31437 7.39985C2.31437 7.39985 2.31199 7.39748 2.31199 7.39511V7.39274V7.388L2.31437 7.38564V7.38326C2.31437 7.38326 2.31673 7.38326 2.3191 7.38326H2.32384C2.32384 7.38326 2.32384 7.38564 2.32621 7.38564L2.32858 7.388C2.32858 7.388 2.33095 7.388 2.33095 7.39037V7.39511C2.33095 7.39511 2.33094 7.39748 2.32858 7.39748L2.32621 7.39985C2.32621 7.39985 2.32621 7.40222 2.32384 7.40222C2.32384 7.40222 2.32384 7.39985 2.3191 7.40222C2.32147 7.40222 2.32147 7.40222 2.3191 7.40222Z" fill="url(#paint7_radial_249_2749)"/>
<path d="M2.44509 7.38241C2.44509 7.37293 2.42614 7.36582 2.40245 7.36582C2.4214 7.34924 2.43088 7.33503 2.42614 7.32555C2.4214 7.31844 2.40245 7.32081 2.38113 7.33266C2.39061 7.31134 2.39061 7.29239 2.3835 7.28765C2.37402 7.28291 2.35981 7.29476 2.3456 7.31371C2.34323 7.29002 2.33612 7.27344 2.32665 7.27344C2.31954 7.27344 2.3148 7.28291 2.31006 7.29713C2.30059 7.28528 2.29348 7.27818 2.28637 7.28054C2.2769 7.28291 2.2769 7.30186 2.28164 7.32555C2.26269 7.31134 2.24373 7.3066 2.23663 7.31371C2.22952 7.32082 2.239 7.3374 2.25321 7.35635C2.22952 7.35398 2.21057 7.35635 2.2082 7.36582C2.20583 7.3753 2.22005 7.38714 2.24374 7.39425C2.22242 7.40372 2.20583 7.41557 2.2082 7.42504C2.21057 7.43452 2.22952 7.43689 2.25321 7.43452C2.23663 7.45347 2.22952 7.47005 2.23663 7.47716C2.24373 7.48427 2.26032 7.47716 2.28164 7.46295C2.2769 7.48664 2.27927 7.50559 2.28637 7.50796C2.29585 7.51032 2.30769 7.49611 2.31954 7.47479C2.32665 7.49848 2.33612 7.51506 2.3456 7.51269C2.35507 7.51033 2.35981 7.49374 2.35744 7.46768C2.37402 7.48427 2.39061 7.49374 2.39771 7.48664C2.40482 7.4819 2.40008 7.46295 2.38823 7.44163C2.41192 7.44873 2.43088 7.44873 2.43325 7.43926C2.43798 7.42978 2.42377 7.41557 2.40245 7.40373C2.42851 7.39899 2.44509 7.39188 2.44509 7.38241ZM2.32428 7.39425C2.32191 7.39425 2.32428 7.39188 2.32428 7.39425C2.32191 7.39188 2.32191 7.39188 2.32428 7.39425C2.32191 7.39188 2.32191 7.39188 2.32191 7.39188C2.32664 7.39425 2.32665 7.39425 2.32428 7.39425Z" fill="url(#paint8_radial_249_2749)"/>
<path d="M4.13837 7.64934C4.136 7.61381 4.06731 7.59012 3.97729 7.58775C4.04599 7.5309 4.08389 7.46931 4.06494 7.43851C4.04598 7.40772 3.97492 7.41956 3.89438 7.45983C3.92754 7.37692 3.93228 7.30349 3.90149 7.2869C3.87069 7.27032 3.81384 7.31296 3.76172 7.3864C3.74988 7.29638 3.72145 7.23242 3.68591 7.23242C3.65986 7.23242 3.63617 7.26795 3.62196 7.32244C3.58879 7.27743 3.55563 7.25137 3.53194 7.26085C3.49877 7.27269 3.49166 7.34376 3.51298 7.43141C3.43955 7.37929 3.37085 7.35797 3.34716 7.38403C3.32347 7.41009 3.3519 7.47642 3.41112 7.54512C3.32111 7.53327 3.25241 7.54748 3.24293 7.58301C3.23582 7.61855 3.29031 7.66119 3.37559 7.69435C3.29268 7.72752 3.23583 7.77253 3.2453 7.80806C3.25478 7.84123 3.32584 7.85544 3.41349 7.84123C3.35427 7.90992 3.32821 7.97625 3.3519 8.00231C3.37559 8.02837 3.44429 8.00468 3.51772 7.95256C3.49877 8.04021 3.50588 8.11128 3.54141 8.12312C3.57458 8.13497 3.62432 8.08285 3.66222 7.99994C3.68828 8.08522 3.72856 8.14444 3.76409 8.13971C3.79962 8.1326 3.81857 8.0639 3.81384 7.97388C3.8778 8.03784 3.94176 8.07101 3.97018 8.04732C3.99861 8.026 3.98203 7.95493 3.93465 7.87913C4.01993 7.90518 4.09337 7.90281 4.10758 7.87202C4.12179 7.83885 4.07441 7.78674 3.99624 7.74173C4.07915 7.72041 4.14074 7.68488 4.13837 7.64934ZM3.68355 7.69909C3.68118 7.69672 3.67881 7.69672 3.67881 7.69672C3.67881 7.69672 3.67644 7.69435 3.67644 7.69198V7.68725V7.68251C3.67644 7.68251 3.67881 7.68014 3.68118 7.68014C3.68118 7.68014 3.68354 7.68014 3.68591 7.68014C3.68591 7.68014 3.68592 7.68014 3.68829 7.68014C3.68829 7.68014 3.69065 7.68251 3.69302 7.68251L3.69539 7.68488C3.69539 7.68488 3.69539 7.68488 3.69776 7.68725V7.69198C3.69776 7.69198 3.69776 7.69199 3.69539 7.69435L3.69302 7.69672C3.69302 7.69672 3.69302 7.69909 3.69065 7.69909C3.68828 7.69672 3.68828 7.69672 3.68355 7.69909C3.68591 7.69909 3.68591 7.69672 3.68355 7.69909Z" fill="url(#paint9_radial_249_2749)"/>
<path d="M3.80912 7.67537C3.80912 7.6659 3.79017 7.65879 3.76648 7.65879C3.78544 7.64221 3.79491 7.628 3.79017 7.61852C3.78544 7.61141 3.76649 7.61378 3.74517 7.62563C3.75464 7.60431 3.75464 7.58536 3.74754 7.58062C3.73806 7.57588 3.72384 7.58773 3.70963 7.60668C3.70726 7.58299 3.70016 7.56641 3.68831 7.56641C3.68121 7.56641 3.67647 7.57588 3.67173 7.5901C3.66226 7.57825 3.65515 7.57114 3.64804 7.57351C3.63857 7.57588 3.63856 7.5972 3.6433 7.61852C3.62435 7.60431 3.6054 7.59957 3.5983 7.60668C3.59119 7.61378 3.60066 7.63037 3.61488 7.64932C3.59119 7.64695 3.57224 7.64932 3.56987 7.65879C3.5675 7.66827 3.58408 7.68011 3.6054 7.68722C3.58408 7.6967 3.5675 7.70854 3.56987 7.71802C3.57224 7.72749 3.59119 7.72986 3.61488 7.72749C3.5983 7.74644 3.59119 7.76303 3.5983 7.77013C3.6054 7.77724 3.62198 7.77013 3.64094 7.75592C3.6362 7.77961 3.63857 7.79856 3.64804 7.80093C3.65752 7.8033 3.66936 7.78908 3.68121 7.76776C3.68831 7.79145 3.69779 7.80566 3.70726 7.80566C3.71674 7.80329 3.72148 7.78671 3.71911 7.76066C3.73569 7.77724 3.75227 7.78671 3.75938 7.78197C3.76648 7.77487 3.76175 7.75829 3.7499 7.73697C3.77359 7.74407 3.79255 7.74408 3.79491 7.7346C3.79965 7.72512 3.78544 7.71091 3.76412 7.69906C3.79254 7.69433 3.80912 7.68485 3.80912 7.67537ZM3.68831 7.68959C3.68595 7.68722 3.68594 7.68722 3.68594 7.68722C3.69068 7.68722 3.69068 7.68722 3.68831 7.68959C3.69068 7.68959 3.69068 7.68722 3.68831 7.68959C3.69068 7.68959 3.69068 7.68959 3.68831 7.68959Z" fill="url(#paint10_radial_249_2749)"/>
<path d="M6.25143 7.80965C6.2467 7.75279 6.1401 7.71726 6.00033 7.71252C6.1093 7.6225 6.16852 7.52775 6.13773 7.48037C6.10693 7.43299 5.9956 7.44958 5.87004 7.51354C5.92216 7.38088 5.92927 7.26954 5.87952 7.24348C5.82977 7.21742 5.73975 7.28375 5.65921 7.39983C5.64263 7.26006 5.59525 7.1582 5.54077 7.1582C5.5005 7.1582 5.4626 7.21269 5.44128 7.29797C5.39153 7.2269 5.33941 7.18663 5.30151 7.20084C5.2494 7.21979 5.23992 7.33113 5.27071 7.46852C5.15464 7.38798 5.04804 7.35482 5.01014 7.39509C4.97223 7.43773 5.01724 7.53959 5.10963 7.64619C4.96986 7.62961 4.85853 7.65093 4.84668 7.70541C4.83484 7.7599 4.92249 7.8286 5.05277 7.87834C4.92249 7.93046 4.83484 8.00153 4.84905 8.05601C4.86327 8.1105 4.9746 8.12944 5.11437 8.11049C5.02435 8.21709 4.98171 8.32132 5.01961 8.36397C5.05751 8.40424 5.16412 8.36871 5.27782 8.28579C5.2494 8.42319 5.26124 8.53452 5.31335 8.55348C5.36547 8.57243 5.44364 8.48952 5.50286 8.3616C5.54314 8.49662 5.60709 8.58901 5.66158 8.57953C5.71606 8.57006 5.74449 8.46109 5.73739 8.32133C5.83688 8.42082 5.93637 8.47293 5.98138 8.4374C6.02639 8.40187 5.99796 8.2929 5.92453 8.17445C6.05955 8.21473 6.17089 8.21236 6.19458 8.16024C6.2159 8.10812 6.14247 8.02521 6.01928 7.95415C6.15905 7.92098 6.25617 7.86413 6.25143 7.80965ZM5.5384 7.88545L5.53603 7.88308C5.53603 7.88308 5.53366 7.88308 5.53129 7.88308C5.53129 7.88308 5.53129 7.88071 5.52892 7.88071C5.52892 7.87834 5.52656 7.87834 5.52419 7.87834C5.52419 7.87834 5.52419 7.87598 5.52419 7.87361C5.52419 7.87361 5.52419 7.87124 5.52182 7.87124L5.52419 7.86887C5.52419 7.8665 5.52419 7.8665 5.52419 7.86413C5.52419 7.86413 5.52655 7.86413 5.52655 7.86176C5.52655 7.86176 5.52655 7.85939 5.52892 7.85703H5.53129C5.53129 7.85703 5.53366 7.85702 5.53366 7.85465H5.5384L5.54077 7.85703C5.54077 7.85703 5.54314 7.85703 5.5455 7.85703C5.5455 7.85939 5.5455 7.85939 5.5455 7.86176L5.54788 7.86413C5.54788 7.86413 5.54788 7.8665 5.54788 7.86887C5.54788 7.86887 5.55024 7.87124 5.55024 7.87361L5.54788 7.87598C5.54788 7.87598 5.54788 7.87834 5.54788 7.88071C5.54788 7.88071 5.5455 7.88071 5.5455 7.88308L5.54314 7.88545C5.54077 7.88545 5.54077 7.88545 5.5384 7.88545C5.54077 7.88545 5.54077 7.88545 5.5384 7.88545Z" fill="url(#paint11_radial_249_2749)"/>
<path d="M5.7329 7.8522C5.7329 7.83799 5.70447 7.82851 5.66657 7.82614C5.695 7.80246 5.71158 7.7764 5.70447 7.76455C5.69737 7.75271 5.66657 7.75744 5.63341 7.77403C5.64762 7.73849 5.64999 7.71007 5.63577 7.70296C5.62156 7.69586 5.59787 7.71481 5.57655 7.7456C5.57182 7.7077 5.55997 7.68164 5.54576 7.68164C5.53391 7.68164 5.52444 7.69822 5.5197 7.71954C5.50549 7.70059 5.49128 7.68875 5.4818 7.69348C5.46759 7.69822 5.46522 7.72902 5.47469 7.76455C5.4439 7.74323 5.41547 7.73376 5.40599 7.7456C5.39652 7.75745 5.40836 7.7835 5.43442 7.81193C5.39652 7.80719 5.36809 7.81193 5.36335 7.82614C5.36098 7.84036 5.38467 7.85931 5.42021 7.87115C5.38467 7.88536 5.36098 7.90432 5.36572 7.91853C5.37046 7.93274 5.39889 7.93748 5.43679 7.93274C5.4131 7.96117 5.40126 7.9896 5.41073 7.99907C5.42021 8.00855 5.44863 7.99907 5.47943 7.97775C5.47232 8.01565 5.47469 8.04408 5.4889 8.04882C5.50312 8.05356 5.52207 8.03223 5.53865 7.9967C5.5505 8.03223 5.56708 8.05829 5.58129 8.05592C5.59551 8.05355 5.60261 8.02513 5.60024 7.98723C5.6263 8.01328 5.65236 8.0275 5.6642 8.01802C5.67605 8.00855 5.66894 7.98012 5.64762 7.94696C5.68315 7.9588 5.71395 7.9588 5.71869 7.94459C5.72342 7.93037 5.70448 7.90905 5.67131 7.8901C5.70921 7.88299 5.73527 7.86878 5.7329 7.8522ZM5.54576 7.87352C5.54339 7.87352 5.54339 7.87352 5.54576 7.87352C5.54339 7.87115 5.54339 7.87352 5.54576 7.87352C5.54339 7.87115 5.54339 7.87115 5.54339 7.87115C5.54339 7.87115 5.54339 7.86878 5.54576 7.86878C5.54576 7.86878 5.54576 7.86878 5.54813 7.86878C5.54813 7.87115 5.54813 7.87352 5.54576 7.87352C5.54813 7.87352 5.54813 7.87352 5.54576 7.87352Z" fill="url(#paint12_radial_249_2749)"/>
<path d="M7.83866 7.74505C7.83629 7.70952 7.76759 7.68583 7.67758 7.68346C7.74627 7.62661 7.78417 7.56501 7.76522 7.53422C7.74627 7.50342 7.67521 7.51527 7.59467 7.55554C7.62783 7.47263 7.63256 7.40156 7.60177 7.38261C7.57097 7.36603 7.51412 7.40867 7.462 7.4821C7.45253 7.39209 7.42173 7.32812 7.3862 7.32812C7.36014 7.32812 7.33645 7.36366 7.32224 7.41814C7.28907 7.37313 7.25591 7.34708 7.23222 7.35655C7.19906 7.3684 7.19195 7.43947 7.21327 7.52712C7.13984 7.475 7.07114 7.45368 7.04745 7.47974C7.02376 7.50579 7.05219 7.57212 7.11141 7.63845C7.02139 7.62661 6.95269 7.64082 6.94322 7.67635C6.93611 7.71189 6.99059 7.75453 7.07587 7.78769C6.99296 7.82085 6.93611 7.86586 6.94559 7.9014C6.95507 7.93456 7.02613 7.94878 7.11378 7.93456C7.05456 8.00326 7.0285 8.06959 7.05219 8.09565C7.07588 8.12171 7.14457 8.09802 7.21564 8.0459C7.19669 8.13355 7.2038 8.20461 7.23933 8.21646C7.27249 8.2283 7.32224 8.17619 7.36014 8.09328C7.3862 8.17856 7.42647 8.23778 7.462 8.23304C7.49754 8.22593 7.51649 8.15724 7.50938 8.06722C7.57334 8.13118 7.6373 8.16434 7.66573 8.14065C7.69416 8.11933 7.67758 8.04827 7.6302 7.97247C7.71548 7.99852 7.78655 7.99615 7.80076 7.96536C7.81497 7.93219 7.76759 7.88008 7.68942 7.83507C7.77944 7.81612 7.8434 7.78058 7.83866 7.74505ZM7.38383 7.7948C7.38383 7.7948 7.38147 7.7948 7.38147 7.79243H7.37909C7.37909 7.79243 7.37673 7.79006 7.37673 7.78769V7.78295V7.78058C7.37673 7.78058 7.37909 7.77822 7.37909 7.77585V7.77348H7.38147C7.38147 7.77348 7.38383 7.77348 7.3862 7.77348C7.3862 7.77348 7.38857 7.77585 7.39094 7.77585L7.39331 7.77822C7.39331 7.77822 7.39568 7.77821 7.39568 7.78058V7.78295C7.39568 7.78295 7.39568 7.78532 7.39331 7.78769V7.79006C7.39331 7.79006 7.39094 7.79243 7.38857 7.79243C7.38857 7.7948 7.38857 7.79243 7.38383 7.7948C7.3862 7.7948 7.3862 7.79243 7.38383 7.7948Z" fill="url(#paint13_radial_249_2749)"/>
<path d="M7.50982 7.77108C7.50982 7.7616 7.49087 7.7545 7.46718 7.7545C7.48613 7.73791 7.49561 7.7237 7.49087 7.71422C7.48613 7.70712 7.46718 7.70949 7.44586 7.72133C7.45534 7.69764 7.45534 7.68106 7.44823 7.67632C7.43876 7.67159 7.42454 7.68343 7.41033 7.70238C7.40796 7.67869 7.39848 7.66211 7.39138 7.66211C7.38427 7.66211 7.37953 7.67159 7.3748 7.6858C7.36769 7.67395 7.35821 7.66685 7.35111 7.66922C7.34163 7.67159 7.34163 7.6929 7.34637 7.71422C7.32742 7.70001 7.30847 7.69527 7.30136 7.70238C7.29425 7.70949 7.30373 7.72607 7.31794 7.74502C7.29425 7.74265 7.2753 7.74502 7.27293 7.7545C7.27056 7.76397 7.28715 7.77582 7.30847 7.78292C7.28478 7.7924 7.27056 7.80424 7.27293 7.81372C7.2753 7.82319 7.29425 7.82556 7.31794 7.8232C7.30136 7.84215 7.29425 7.85873 7.30136 7.86583C7.30847 7.87294 7.32505 7.86583 7.344 7.85162C7.33926 7.87531 7.34163 7.89426 7.35111 7.89663C7.36058 7.899 7.37243 7.88478 7.3819 7.86346C7.38901 7.88715 7.39848 7.90137 7.40796 7.90137C7.41744 7.899 7.42217 7.88005 7.4198 7.85873C7.43638 7.87531 7.45297 7.88478 7.46007 7.87768C7.46718 7.87057 7.46244 7.85399 7.4506 7.83267C7.47429 7.83978 7.49324 7.83977 7.49561 7.8303C7.50034 7.82082 7.48613 7.80661 7.46481 7.79477C7.49324 7.79003 7.50982 7.78055 7.50982 7.77108ZM7.38901 7.78529C7.38664 7.78292 7.38901 7.78292 7.38901 7.78529C7.38664 7.78292 7.38664 7.78292 7.38901 7.78529C7.38664 7.78292 7.38664 7.78292 7.38664 7.78292C7.39138 7.78292 7.39137 7.78292 7.38901 7.78529Z" fill="url(#paint14_radial_249_2749)"/>
<path d="M9.39997 7.4345C9.3976 7.39897 9.3289 7.37528 9.23888 7.37291C9.30758 7.31606 9.34548 7.25447 9.32653 7.22367C9.30758 7.19288 9.23651 7.20472 9.15597 7.24499C9.18914 7.16208 9.19387 7.08864 9.16308 7.07206C9.13228 7.05548 9.07543 7.09812 9.02331 7.17155C9.01147 7.08153 8.98304 7.01758 8.94751 7.01758C8.92145 7.01758 8.89776 7.05311 8.88355 7.1076C8.85275 7.06259 8.81722 7.03653 8.79353 7.046C8.76037 7.05785 8.75326 7.12892 8.77458 7.21656C8.70115 7.16445 8.63245 7.14313 8.60876 7.16919C8.58507 7.19524 8.6135 7.26157 8.67272 7.3279C8.5827 7.31842 8.514 7.33027 8.50453 7.3658C8.49742 7.40134 8.5519 7.44398 8.63718 7.47477C8.55427 7.50794 8.49742 7.55295 8.50689 7.58848C8.51637 7.62401 8.58744 7.63586 8.67509 7.62164C8.61824 7.69034 8.58981 7.75667 8.6135 7.78273C8.63718 7.80879 8.70588 7.78747 8.77695 7.73298C8.758 7.82063 8.76747 7.89169 8.80064 7.90354C8.8338 7.91538 8.88355 7.86327 8.92145 7.78036C8.94751 7.86564 8.98778 7.92486 9.02331 7.92012C9.05885 7.91538 9.0778 7.84432 9.07306 7.7543C9.13702 7.81826 9.20098 7.85142 9.22704 7.82774C9.2531 7.80405 9.23889 7.73535 9.19151 7.65955C9.27679 7.6856 9.35022 7.68324 9.36444 7.65244C9.37865 7.61928 9.33127 7.56716 9.2531 7.52215C9.34075 7.50557 9.40234 7.4724 9.39997 7.4345ZM8.94514 7.48425C8.94277 7.48188 8.9404 7.48188 8.9404 7.48188L8.93804 7.47951V7.47714V7.4724C8.93804 7.4724 8.9404 7.47003 8.9404 7.46766L8.94277 7.4653C8.94277 7.4653 8.94277 7.4653 8.94514 7.4653C8.94514 7.4653 8.94751 7.46529 8.94988 7.46766H8.95225V7.47004C8.95225 7.47004 8.95462 7.47003 8.95462 7.4724V7.47714C8.95462 7.47714 8.95225 7.47714 8.95225 7.47951L8.94988 7.48188C8.94988 7.48188 8.94751 7.48425 8.94514 7.48425C8.94751 7.48425 8.94751 7.48425 8.94514 7.48425Z" fill="url(#paint15_radial_249_2749)"/>
<path d="M9.06862 7.46248C9.06862 7.45301 9.04966 7.4459 9.02597 7.4459C9.04492 7.43169 9.0544 7.4151 9.04966 7.408C9.04492 7.40089 9.02597 7.40326 9.00465 7.41274C9.01413 7.39142 9.01413 7.37246 9.00702 7.36773C8.99992 7.36299 8.98334 7.37483 8.96912 7.39378C8.96675 7.37009 8.95965 7.35352 8.9478 7.35352C8.94069 7.35352 8.93596 7.36299 8.93122 7.3772C8.92174 7.36536 8.91464 7.35825 8.90753 7.36062C8.89805 7.36299 8.89805 7.38194 8.90279 7.40563C8.88384 7.39142 8.86489 7.38668 8.85778 7.39142C8.85068 7.39852 8.86015 7.4151 8.87436 7.43405C8.85068 7.43169 8.83173 7.43405 8.82936 7.44353C8.82699 7.453 8.84357 7.46485 8.86489 7.47196C8.8412 7.48143 8.82699 7.49328 8.82936 7.50276C8.83173 7.51223 8.85068 7.5146 8.87436 7.51223C8.85778 7.53118 8.85068 7.54776 8.85778 7.55487C8.86489 7.56198 8.88147 7.55487 8.90042 7.54065C8.89568 7.56434 8.89805 7.5833 8.90516 7.58567C8.91464 7.58803 8.92648 7.57382 8.93833 7.5525C8.94543 7.57619 8.95491 7.5904 8.96438 7.5904C8.97386 7.58803 8.97859 7.56908 8.97623 7.54539C8.99281 7.56198 9.00939 7.57145 9.0165 7.56671C9.0236 7.5596 9.01887 7.54302 9.00702 7.5217C9.03071 7.52881 9.04966 7.52881 9.05203 7.51934C9.05677 7.50986 9.04256 7.49565 9.02124 7.4838C9.0544 7.48143 9.07098 7.47196 9.06862 7.46248ZM8.95017 7.47433C8.9478 7.47433 8.9478 7.47433 8.95017 7.47433C8.9478 7.47196 8.9478 7.47196 8.95017 7.47433C8.9478 7.47196 8.9478 7.47196 8.9478 7.47196C8.95254 7.47433 8.95254 7.47433 8.95017 7.47433Z" fill="url(#paint16_radial_249_2749)"/>
<path d="M11.0039 6.9638C11.0015 6.92826 10.9328 6.90458 10.8428 6.90221C10.9115 6.84535 10.9494 6.78376 10.9305 6.75297C10.9115 6.72217 10.8404 6.73401 10.7599 6.77429C10.7931 6.69137 10.7978 6.62031 10.767 6.60136C10.7362 6.58477 10.6794 6.62741 10.6272 6.70085C10.6178 6.61083 10.587 6.54688 10.5514 6.54688C10.5254 6.54688 10.5017 6.58241 10.4875 6.63452C10.4543 6.58951 10.4211 6.56346 10.3975 6.57293C10.3643 6.58478 10.3572 6.65584 10.3785 6.74349C10.3051 6.69137 10.2364 6.67006 10.2127 6.69611C10.189 6.72217 10.2174 6.7885 10.2766 6.85483C10.1866 6.84298 10.1179 6.8572 10.1085 6.89273C10.099 6.92827 10.1558 6.9709 10.2411 7.0017C10.1582 7.03486 10.1013 7.07987 10.1108 7.11541C10.1203 7.14857 10.1914 7.16279 10.279 7.14857C10.2222 7.21727 10.1937 7.2836 10.2174 7.30965C10.2411 7.33571 10.3098 7.31202 10.3832 7.25991C10.3643 7.34756 10.3714 7.41862 10.4069 7.43047C10.4401 7.44231 10.4898 7.3902 10.5277 7.30729C10.5538 7.39257 10.5941 7.45179 10.6296 7.44705C10.6651 7.43994 10.6841 7.37125 10.677 7.28123C10.7409 7.34519 10.8049 7.37835 10.8333 7.35467C10.8618 7.33335 10.8452 7.26228 10.7978 7.18647C10.8831 7.21253 10.9541 7.21016 10.9684 7.177C10.9826 7.14383 10.9352 7.09172 10.857 7.04671C10.9447 7.03486 11.0063 6.99933 11.0039 6.9638ZM10.5491 7.01354C10.5467 7.01117 10.5443 7.01118 10.5443 7.01118L10.542 7.00881V7.00644V7.0017C10.542 7.0017 10.5443 6.99933 10.5443 6.99696L10.5467 6.99459C10.5467 6.99459 10.5467 6.99459 10.5491 6.99459H10.5538C10.5538 6.99459 10.5538 6.99696 10.5562 6.99696L10.5585 6.99933C10.5585 6.99933 10.5609 6.99933 10.5609 7.0017V7.00644C10.5609 7.00644 10.5609 7.00644 10.5585 7.00881L10.5562 7.01118C10.5562 7.01118 10.5562 7.01117 10.5538 7.01354C10.5538 7.01354 10.5538 7.01117 10.5491 7.01354C10.5514 7.01354 10.5514 7.01117 10.5491 7.01354Z" fill="url(#paint17_radial_249_2749)"/>
<path d="M10.6751 6.98983C10.6751 6.98035 10.6561 6.97325 10.6324 6.97325C10.6514 6.95903 10.6608 6.94245 10.6561 6.93298C10.6514 6.92587 10.6324 6.92824 10.6111 6.94008C10.6206 6.91876 10.6206 6.89981 10.6135 6.89507C10.604 6.89034 10.5898 6.90218 10.5756 6.92113C10.5732 6.89744 10.5637 6.88086 10.5542 6.88086C10.5471 6.88086 10.54 6.89034 10.5377 6.90455C10.5282 6.8927 10.5211 6.8856 10.514 6.88797C10.5045 6.89034 10.5045 6.90929 10.5092 6.93298C10.4903 6.91876 10.4713 6.91402 10.4642 6.92113C10.4571 6.92824 10.4666 6.94482 10.4808 6.96377C10.4571 6.9614 10.4382 6.96377 10.4358 6.97325C10.4334 6.98272 10.4476 6.99457 10.4713 7.00167C10.45 7.01115 10.4334 7.02299 10.4358 7.0301C10.4382 7.03957 10.4571 7.04194 10.4808 7.03957C10.4642 7.05852 10.4571 7.07511 10.4642 7.08222C10.4713 7.08932 10.4879 7.08222 10.5069 7.068C10.5021 7.09169 10.5045 7.11064 10.5116 7.11301C10.5211 7.11538 10.5329 7.10117 10.5424 7.07985C10.5495 7.10353 10.559 7.11775 10.5685 7.11775C10.5779 7.11538 10.5827 7.0988 10.5803 7.07274C10.5969 7.08932 10.6135 7.0988 10.6206 7.09406C10.6277 7.08695 10.6229 7.07037 10.6111 7.04905C10.6348 7.05616 10.6537 7.05616 10.6561 7.04668C10.6608 7.03721 10.6466 7.02299 10.6253 7.01352C10.6585 7.00878 10.6751 6.9993 10.6751 6.98983ZM10.5542 7.00404C10.5519 7.00404 10.5542 7.00167 10.5542 7.00404C10.5519 7.00167 10.5519 7.00167 10.5519 7.00167C10.5566 7.00167 10.5566 7.00167 10.5542 7.00404C10.5566 7.00404 10.5566 7.00404 10.5542 7.00404Z" fill="url(#paint18_radial_249_2749)"/>
<path d="M5.89143 3.6543C2.63657 3.6543 0 4.51657 0 5.57784C0 6.64147 2.63657 7.50137 5.89143 7.50137C9.14391 7.50137 11.7829 6.6391 11.7829 5.57784C11.7829 4.51657 9.14628 3.6543 5.89143 3.6543Z" fill="url(#paint19_linear_249_2749)"/>
<path d="M5.89151 4.06641C2.77168 4.06641 0.24408 4.72022 0.24408 5.52801C0.24408 6.3358 2.77405 6.98961 5.89151 6.98961C9.00897 6.98961 11.5389 6.3358 11.5389 5.52801C11.5389 4.72022 9.01134 4.06641 5.89151 4.06641Z" fill="url(#paint20_radial_249_2749)"/>
<path opacity="0.4" d="M9.19413 4.50367C9.19413 4.50367 4.88511 4.09149 2.89525 4.71451C0.903011 5.33753 1.00014 4.97272 1.33889 4.7453C1.6729 4.51552 7.23505 3.44241 9.19413 4.50367Z" fill="url(#paint21_radial_249_2749)"/>
<path opacity="0.4" d="M2.24121 6.28676C2.24121 6.28676 6.5289 6.8624 8.54482 6.31518C10.5584 5.76797 10.447 6.13041 10.1012 6.34598C9.75532 6.56155 4.15527 7.42146 2.24121 6.28676Z" fill="url(#paint22_radial_249_2749)"/>
<path opacity="0.4" d="M4.44904 4.80155C4.7641 4.75654 5.08154 4.73049 5.40134 4.71627L5.87985 4.70443C6.03857 4.69969 6.19728 4.69259 6.35837 4.68311C6.51708 4.676 6.6758 4.6689 6.83688 4.66653C6.9956 4.66179 7.15669 4.66416 7.3154 4.67126C7.39594 4.676 7.47412 4.67837 7.55466 4.68311L7.79392 4.7068C7.87446 4.71391 7.95263 4.73285 8.0308 4.7447C8.07107 4.74944 8.10898 4.76128 8.14688 4.77313L8.26296 4.80393L8.26532 4.80629L8.26296 4.80866C8.18478 4.79682 8.10661 4.77787 8.02843 4.77076C7.95026 4.76365 7.87209 4.75181 7.79154 4.74707L7.55229 4.73286C7.47174 4.73049 7.39357 4.72575 7.3154 4.72338C6.99797 4.71628 6.68053 4.71153 6.36073 4.71153C6.20202 4.71153 6.04093 4.71391 5.88222 4.72338C5.7235 4.73049 5.56479 4.74707 5.40607 4.75891C5.08864 4.78023 4.77121 4.79918 4.45141 4.80866L4.44904 4.80629V4.80155Z" fill="url(#paint23_radial_249_2749)"/>
<path d="M6.86701 4.58143C6.79357 2.93269 5.71573 1.6298 5.65651 0C5.59728 1.6298 4.51944 2.93269 4.446 4.58143C4.42231 5.1168 4.5147 5.66875 4.7279 6.10463C4.9411 6.5405 5.28222 6.85083 5.64703 6.89584H5.66835C6.03316 6.85083 6.37191 6.5405 6.58748 6.10463C6.80068 5.66875 6.8907 5.1168 6.86701 4.58143Z" fill="url(#paint24_radial_249_2749)"/>
<path d="M5.65691 6.84137C5.40818 6.8011 5.16655 6.58553 5.00783 6.26099C4.84912 5.93882 4.77095 5.50295 4.7899 5.06233C4.82069 4.35641 5.0789 3.69075 5.35369 2.98719C5.45792 2.7195 5.56452 2.44945 5.65928 2.16992C5.75403 2.44945 5.85826 2.7195 5.9625 2.98719C6.23729 3.69075 6.4955 4.35404 6.52629 5.06233C6.54524 5.50058 6.46707 5.93882 6.30835 6.26099C6.14964 6.58553 5.90564 6.8011 5.65691 6.84137Z" fill="url(#paint25_radial_249_2749)"/>
<path d="M5.65648 6.82297C5.47881 6.79454 5.30351 6.64057 5.1898 6.40842C5.0761 6.17863 5.01924 5.86594 5.03346 5.55088C5.05478 5.04394 5.24192 4.56779 5.43617 4.06558C5.51197 3.8737 5.58778 3.67946 5.65411 3.48047C5.72281 3.67946 5.79624 3.8737 5.87204 4.06558C6.06866 4.57016 6.25344 5.04394 6.27476 5.55088C6.28897 5.86594 6.23212 6.17863 6.11841 6.40842C6.00944 6.64057 5.83651 6.79454 5.65648 6.82297Z" fill="url(#paint26_radial_249_2749)"/>
<defs>
<radialGradient id="paint0_radial_249_2749" cx="0" cy="0" r="1" gradientUnits="userSpaceOnUse" gradientTransform="translate(5.85061 10.7382) scale(5.10437 1.26412)">
<stop offset="0.2811" stop-color="#42210B"/>
<stop offset="0.3105" stop-color="#654A38"/>
<stop offset="0.3424" stop-color="#857062"/>
<stop offset="0.3781" stop-color="#A29288"/>
<stop offset="0.417" stop-color="#BCB0A8"/>
<stop offset="0.46" stop-color="#D1C9C3"/>
<stop offset="0.5084" stop-color="#E2DDD9"/>
<stop offset="0.5649" stop-color="#EFECEA"/>
<stop offset="0.6346" stop-color="#F8F7F6"/>
<stop offset="0.7322" stop-color="#FEFDFD"/>
<stop offset="1" stop-color="white"/>
</radialGradient>
<radialGradient id="paint1_radial_249_2749" cx="0" cy="0" r="1" gradientUnits="userSpaceOnUse" gradientTransform="translate(5.82231 5.51565) scale(6.7424 6.74239)">
<stop offset="0.0914" stop-color="#FFD238"/>
<stop offset="0.3041" stop-color="#FF9A00"/>
<stop offset="0.4015" stop-color="#F98A01"/>
<stop offset="0.5912" stop-color="#EA6005"/>
<stop offset="0.6083" stop-color="#E85C05"/>
<stop offset="0.6759" stop-color="#CA4707"/>
<stop offset="0.8265" stop-color="#8B1C0A"/>
<stop offset="0.8978" stop-color="#720B0B"/>
<stop offset="1" stop-color="#FF9A00"/>
</radialGradient>
<radialGradient id="paint2_radial_249_2749" cx="0" cy="0" r="1" gradientUnits="userSpaceOnUse" gradientTransform="translate(5.94573 2.5622) scale(9.08966 9.08966)">
<stop offset="0.0914" stop-color="#FFD238"/>
<stop offset="0.3041" stop-color="#FF9A00"/>
<stop offset="0.4015" stop-color="#F98A01"/>
<stop offset="0.5912" stop-color="#EA6005"/>
<stop offset="0.6083" stop-color="#E85C05"/>
<stop offset="0.6759" stop-color="#CA4707"/>
<stop offset="0.8265" stop-color="#8B1C0A"/>
<stop offset="0.8978" stop-color="#720B0B"/>
<stop offset="1" stop-color="#FF9A00"/>
</radialGradient>
<radialGradient id="paint3_radial_249_2749" cx="0" cy="0" r="1" gradientUnits="userSpaceOnUse" gradientTransform="translate(6.02554 4.86518) scale(9.58021 9.58021)">
<stop offset="0.0914" stop-color="#FFD238"/>
<stop offset="0.3041" stop-color="#FF9A00"/>
<stop offset="0.4015" stop-color="#F98A01"/>
<stop offset="0.5912" stop-color="#EA6005"/>
<stop offset="0.6083" stop-color="#E85C05"/>
<stop offset="0.6759" stop-color="#CA4707"/>
<stop offset="0.8265" stop-color="#8B1C0A"/>
<stop offset="0.8978" stop-color="#720B0B"/>
<stop offset="1" stop-color="#FF9A00"/>
</radialGradient>
<radialGradient id="paint4_radial_249_2749" cx="0" cy="0" r="1" gradientUnits="userSpaceOnUse" gradientTransform="translate(6.0617 6.02851) scale(7.30245 7.30247)">
<stop offset="0.0914" stop-color="#FFD238"/>
<stop offset="0.3041" stop-color="#FF9A00"/>
<stop offset="0.4015" stop-color="#F98A01"/>
<stop offset="0.5912" stop-color="#EA6005"/>
<stop offset="0.6083" stop-color="#E85C05"/>
<stop offset="0.6759" stop-color="#CA4707"/>
<stop offset="0.8265" stop-color="#8B1C0A"/>
<stop offset="0.8978" stop-color="#720B0B"/>
<stop offset="1" stop-color="#FF9A00"/>
</radialGradient>
<radialGradient id="paint5_radial_249_2749" cx="0" cy="0" r="1" gradientUnits="userSpaceOnUse" gradientTransform="translate(0.914726 6.85193) scale(0.887527 0.887529)">
<stop offset="0.0914" stop-color="#FFD238"/>
<stop offset="0.3041" stop-color="#FF9A00"/>
<stop offset="0.3993" stop-color="#F98A01"/>
<stop offset="0.5847" stop-color="#EA6005"/>
<stop offset="0.6014" stop-color="#E85C05"/>
<stop offset="0.6706" stop-color="#CA4707"/>
<stop offset="0.8248" stop-color="#8B1C0A"/>
<stop offset="0.8978" stop-color="#720B0B"/>
<stop offset="1" stop-color="#FF9A00"/>
</radialGradient>
<radialGradient id="paint6_radial_249_2749" cx="0" cy="0" r="1" gradientUnits="userSpaceOnUse" gradientTransform="translate(0.981158 6.33148) scale(0.931221 0.931211)">
<stop offset="0.0914" stop-color="#FFD238"/>
<stop offset="0.3041" stop-color="#FF9A00"/>
<stop offset="0.4015" stop-color="#F98A01"/>
<stop offset="0.5912" stop-color="#EA6005"/>
<stop offset="0.6083" stop-color="#E85C05"/>
<stop offset="0.6759" stop-color="#CA4707"/>
<stop offset="0.8265" stop-color="#8B1C0A"/>
<stop offset="0.8978" stop-color="#720B0B"/>
<stop offset="1" stop-color="#FF9A00"/>
</radialGradient>
<radialGradient id="paint7_radial_249_2749" cx="0" cy="0" r="1" gradientUnits="userSpaceOnUse" gradientTransform="translate(2.32573 7.38941) scale(0.887398 0.887402)">
<stop offset="0.0914" stop-color="#FFD238"/>
<stop offset="0.3041" stop-color="#FF9A00"/>
<stop offset="0.3993" stop-color="#F98A01"/>
<stop offset="0.5847" stop-color="#EA6005"/>
<stop offset="0.6014" stop-color="#E85C05"/>
<stop offset="0.6706" stop-color="#CA4707"/>
<stop offset="0.8248" stop-color="#8B1C0A"/>
<stop offset="0.8978" stop-color="#720B0B"/>
<stop offset="1" stop-color="#FF9A00"/>
</radialGradient>
<radialGradient id="paint8_radial_249_2749" cx="0" cy="0" r="1" gradientUnits="userSpaceOnUse" gradientTransform="translate(2.39248 6.86842) scale(0.930525 0.930538)">
<stop offset="0.0914" stop-color="#FFD238"/>
<stop offset="0.3041" stop-color="#FF9A00"/>
<stop offset="0.4015" stop-color="#F98A01"/>
<stop offset="0.5912" stop-color="#EA6005"/>
<stop offset="0.6083" stop-color="#E85C05"/>
<stop offset="0.6759" stop-color="#CA4707"/>
<stop offset="0.8265" stop-color="#8B1C0A"/>
<stop offset="0.8978" stop-color="#720B0B"/>
<stop offset="1" stop-color="#FF9A00"/>
</radialGradient>
<radialGradient id="paint9_radial_249_2749" cx="0" cy="0" r="1" gradientUnits="userSpaceOnUse" gradientTransform="translate(3.69029 7.68523) scale(0.887639 0.887637)">
<stop offset="0.0914" stop-color="#FFD238"/>
<stop offset="0.3041" stop-color="#FF9A00"/>
<stop offset="0.3993" stop-color="#F98A01"/>
<stop offset="0.5847" stop-color="#EA6005"/>
<stop offset="0.6014" stop-color="#E85C05"/>
<stop offset="0.6706" stop-color="#CA4707"/>
<stop offset="0.8248" stop-color="#8B1C0A"/>
<stop offset="0.8978" stop-color="#720B0B"/>
<stop offset="1" stop-color="#FF9A00"/>
</radialGradient>
<radialGradient id="paint10_radial_249_2749" cx="0" cy="0" r="1" gradientUnits="userSpaceOnUse" gradientTransform="translate(3.75654 7.16286) scale(0.930413)">
<stop offset="0.0914" stop-color="#FFD238"/>
<stop offset="0.3041" stop-color="#FF9A00"/>
<stop offset="0.4015" stop-color="#F98A01"/>
<stop offset="0.5912" stop-color="#EA6005"/>
<stop offset="0.6083" stop-color="#E85C05"/>
<stop offset="0.6759" stop-color="#CA4707"/>
<stop offset="0.8265" stop-color="#8B1C0A"/>
<stop offset="0.8978" stop-color="#720B0B"/>
<stop offset="1" stop-color="#FF9A00"/>
</radialGradient>
<radialGradient id="paint11_radial_249_2749" cx="0" cy="0" r="1" gradientUnits="userSpaceOnUse" gradientTransform="translate(5.54782 7.86566) scale(1.39258 1.39258)">
<stop offset="0.0914" stop-color="#FFD238"/>
<stop offset="0.3041" stop-color="#FF9A00"/>
<stop offset="0.3993" stop-color="#F98A01"/>
<stop offset="0.5847" stop-color="#EA6005"/>
<stop offset="0.6014" stop-color="#E85C05"/>
<stop offset="0.6706" stop-color="#CA4707"/>
<stop offset="0.8248" stop-color="#8B1C0A"/>
<stop offset="0.8978" stop-color="#720B0B"/>
<stop offset="1" stop-color="#FF9A00"/>
</radialGradient>
<radialGradient id="paint12_radial_249_2749" cx="0" cy="0" r="1" gradientUnits="userSpaceOnUse" gradientTransform="translate(5.65217 7.04935) scale(1.4584 1.45839)">
<stop offset="0.0914" stop-color="#FFD238"/>
<stop offset="0.3041" stop-color="#FF9A00"/>
<stop offset="0.4015" stop-color="#F98A01"/>
<stop offset="0.5912" stop-color="#EA6005"/>
<stop offset="0.6083" stop-color="#E85C05"/>
<stop offset="0.6759" stop-color="#CA4707"/>
<stop offset="0.8265" stop-color="#8B1C0A"/>
<stop offset="0.8978" stop-color="#720B0B"/>
<stop offset="1" stop-color="#FF9A00"/>
</radialGradient>
<radialGradient id="paint13_radial_249_2749" cx="0" cy="0" r="1" gradientUnits="userSpaceOnUse" gradientTransform="translate(7.3906 7.78117) scale(0.887402)">
<stop offset="0.0914" stop-color="#FFD238"/>
<stop offset="0.3041" stop-color="#FF9A00"/>
<stop offset="0.3993" stop-color="#F98A01"/>
<stop offset="0.5847" stop-color="#EA6005"/>
<stop offset="0.6014" stop-color="#E85C05"/>
<stop offset="0.6706" stop-color="#CA4707"/>
<stop offset="0.8248" stop-color="#8B1C0A"/>
<stop offset="0.8978" stop-color="#720B0B"/>
<stop offset="1" stop-color="#FF9A00"/>
</radialGradient>
<radialGradient id="paint14_radial_249_2749" cx="0" cy="0" r="1" gradientUnits="userSpaceOnUse" gradientTransform="translate(7.45723 7.25874) scale(0.93053 0.930525)">
<stop offset="0.0914" stop-color="#FFD238"/>
<stop offset="0.3041" stop-color="#FF9A00"/>
<stop offset="0.4015" stop-color="#F98A01"/>
<stop offset="0.5912" stop-color="#EA6005"/>
<stop offset="0.6083" stop-color="#E85C05"/>
<stop offset="0.6759" stop-color="#CA4707"/>
<stop offset="0.8265" stop-color="#8B1C0A"/>
<stop offset="0.8978" stop-color="#720B0B"/>
<stop offset="1" stop-color="#FF9A00"/>
</radialGradient>
<radialGradient id="paint15_radial_249_2749" cx="0" cy="0" r="1" gradientUnits="userSpaceOnUse" gradientTransform="translate(8.95084 7.47134) scale(0.887527 0.887523)">
<stop offset="0.0914" stop-color="#FFD238"/>
<stop offset="0.3041" stop-color="#FF9A00"/>
<stop offset="0.3993" stop-color="#F98A01"/>
<stop offset="0.5847" stop-color="#EA6005"/>
<stop offset="0.6014" stop-color="#E85C05"/>
<stop offset="0.6706" stop-color="#CA4707"/>
<stop offset="0.8248" stop-color="#8B1C0A"/>
<stop offset="0.8978" stop-color="#720B0B"/>
<stop offset="1" stop-color="#FF9A00"/>
</radialGradient>
<radialGradient id="paint16_radial_249_2749" cx="0" cy="0" r="1" gradientUnits="userSpaceOnUse" gradientTransform="translate(9.01762 6.94819) scale(0.931211 0.931198)">
<stop offset="0.0914" stop-color="#FFD238"/>
<stop offset="0.3041" stop-color="#FF9A00"/>
<stop offset="0.4015" stop-color="#F98A01"/>
<stop offset="0.5912" stop-color="#EA6005"/>
<stop offset="0.6083" stop-color="#E85C05"/>
<stop offset="0.6759" stop-color="#CA4707"/>
<stop offset="0.8265" stop-color="#8B1C0A"/>
<stop offset="0.8978" stop-color="#720B0B"/>
<stop offset="1" stop-color="#FF9A00"/>
</radialGradient>
<radialGradient id="paint17_radial_249_2749" cx="0" cy="0" r="1" gradientUnits="userSpaceOnUse" gradientTransform="translate(10.5557 7.00037) scale(0.887514 0.887512)">
<stop offset="0.0914" stop-color="#FFD238"/>
<stop offset="0.3041" stop-color="#FF9A00"/>
<stop offset="0.3993" stop-color="#F98A01"/>
<stop offset="0.5847" stop-color="#EA6005"/>
<stop offset="0.6014" stop-color="#E85C05"/>
<stop offset="0.6706" stop-color="#CA4707"/>
<stop offset="0.8248" stop-color="#8B1C0A"/>
<stop offset="0.8978" stop-color="#720B0B"/>
<stop offset="1" stop-color="#FF9A00"/>
</radialGradient>
<radialGradient id="paint18_radial_249_2749" cx="0" cy="0" r="1" gradientUnits="userSpaceOnUse" gradientTransform="translate(10.6225 6.47807) scale(0.930289 0.930294)">
<stop offset="0.0914" stop-color="#FFD238"/>
<stop offset="0.3041" stop-color="#FF9A00"/>
<stop offset="0.4015" stop-color="#F98A01"/>
<stop offset="0.5912" stop-color="#EA6005"/>
<stop offset="0.6083" stop-color="#E85C05"/>
<stop offset="0.6759" stop-color="#CA4707"/>
<stop offset="0.8265" stop-color="#8B1C0A"/>
<stop offset="0.8978" stop-color="#720B0B"/>
<stop offset="1" stop-color="#FF9A00"/>
</radialGradient>
<linearGradient id="paint19_linear_249_2749" x1="-1.97731" y1="5.55794" x2="12.9926" y2="5.59868" gradientUnits="userSpaceOnUse">
<stop stop-color="#FFD238"/>
<stop offset="0.0625" stop-color="#FF9A00"/>
<stop offset="0.072" stop-color="#F98A01"/>
<stop offset="0.0904" stop-color="#EA6005"/>
<stop offset="0.0921" stop-color="#E85C05"/>
<stop offset="0.0928" stop-color="#E75C05"/>
<stop offset="0.1306" stop-color="#C84607"/>
<stop offset="0.1725" stop-color="#AD3408"/>
<stop offset="0.2209" stop-color="#972509"/>
<stop offset="0.2773" stop-color="#86190A"/>
<stop offset="0.347" stop-color="#7B110B"/>
<stop offset="0.4449" stop-color="#740C0B"/>
<stop offset="0.7166" stop-color="#720B0B"/>
<stop offset="0.768" stop-color="#760F0B"/>
<stop offset="0.8152" stop-color="#811A0A"/>
<stop offset="0.8607" stop-color="#932C08"/>
<stop offset="0.9053" stop-color="#AD4706"/>
<stop offset="0.9491" stop-color="#CE6804"/>
<stop offset="0.9917" stop-color="#F69101"/>
<stop offset="1" stop-color="#FF9A00"/>
</linearGradient>
<radialGradient id="paint20_radial_249_2749" cx="0" cy="0" r="1" gradientUnits="userSpaceOnUse" gradientTransform="translate(5.89175 5.42495) scale(8.7323 2.457)">
<stop stop-color="#FFD238"/>
<stop offset="0.2688" stop-color="#FF9A00"/>
<stop offset="0.3311" stop-color="#FA8B01"/>
<stop offset="0.4502" stop-color="#EB6404"/>
<stop offset="0.4738" stop-color="#E85C05"/>
<stop offset="0.5458" stop-color="#C14107"/>
<stop offset="0.6227" stop-color="#9F2A09"/>
<stop offset="0.6956" stop-color="#86190A"/>
<stop offset="0.7623" stop-color="#770F0B"/>
<stop offset="0.817" stop-color="#720B0B"/>
<stop offset="1" stop-color="#FF9A00"/>
</radialGradient>
<radialGradient id="paint21_radial_249_2749" cx="0" cy="0" r="1" gradientUnits="userSpaceOnUse" gradientTransform="translate(12.6125 10.3586) scale(23.0593 23.0594)">
<stop offset="0.0914" stop-color="#FFD238"/>
<stop offset="0.3041" stop-color="#FF9A00"/>
<stop offset="0.4015" stop-color="#F98A01"/>
<stop offset="0.5912" stop-color="#EA6005"/>
<stop offset="0.6083" stop-color="#E85C05"/>
<stop offset="0.6759" stop-color="#CA4707"/>
<stop offset="0.8265" stop-color="#8B1C0A"/>
<stop offset="0.8978" stop-color="#720B0B"/>
<stop offset="1" stop-color="#FF9A00"/>
</radialGradient>
<radialGradient id="paint22_radial_249_2749" cx="0" cy="0" r="1" gradientUnits="userSpaceOnUse" gradientTransform="translate(-0.95371 0.312861) rotate(-177.822) scale(23.0433 23.0434)">
<stop offset="0.0914" stop-color="#FFD238"/>
<stop offset="0.3041" stop-color="#FF9A00"/>
<stop offset="0.4015" stop-color="#F98A01"/>
<stop offset="0.5912" stop-color="#EA6005"/>
<stop offset="0.6083" stop-color="#E85C05"/>
<stop offset="0.6759" stop-color="#CA4707"/>
<stop offset="0.8265" stop-color="#8B1C0A"/>
<stop offset="0.8978" stop-color="#720B0B"/>
<stop offset="1" stop-color="#FF9A00"/>
</radialGradient>
<radialGradient id="paint23_radial_249_2749" cx="0" cy="0" r="1" gradientUnits="userSpaceOnUse" gradientTransform="translate(5.25021 3.11606) scale(7.70061 7.70059)">
<stop offset="0.0914" stop-color="#FFD238"/>
<stop offset="0.3041" stop-color="#FF9A00"/>
<stop offset="0.4015" stop-color="#F98A01"/>
<stop offset="0.5912" stop-color="#EA6005"/>
<stop offset="0.6083" stop-color="#E85C05"/>
<stop offset="0.6759" stop-color="#CA4707"/>
<stop offset="0.8265" stop-color="#8B1C0A"/>
<stop offset="0.8978" stop-color="#720B0B"/>
<stop offset="1" stop-color="#FF9A00"/>
</radialGradient>
<radialGradient id="paint24_radial_249_2749" cx="0" cy="0" r="1" gradientUnits="userSpaceOnUse" gradientTransform="translate(5.66642 -0.0670575) scale(5.9693 8.74509)">
<stop offset="0.0031" stop-color="#FFD238"/>
<stop offset="0.426" stop-color="#FF9A00"/>
<stop offset="0.7247" stop-color="#E85C05"/>
</radialGradient>
<radialGradient id="paint25_radial_249_2749" cx="0" cy="0" r="1" gradientUnits="userSpaceOnUse" gradientTransform="translate(5.6668 2.57458) scale(6.60199 9.672)">
<stop offset="0.0031" stop-color="#FFD238"/>
<stop offset="0.426" stop-color="#FF9A00"/>
<stop offset="0.7247" stop-color="#E85C05"/>
</radialGradient>
<radialGradient id="paint26_radial_249_2749" cx="0" cy="0" r="1" gradientUnits="userSpaceOnUse" gradientTransform="translate(5.64443 4.25299) scale(4.72763 6.92602)">
<stop offset="0.0031" stop-color="#FFD238"/>
<stop offset="0.426" stop-color="#FF9A00"/>
<stop offset="0.7247" stop-color="#E85C05"/>
</radialGradient>
</defs>
</svg>
