<svg width="16" height="16" viewBox="0 0 16 16" fill="none" xmlns="http://www.w3.org/2000/svg">
<path d="M4.99805 4.1383C4.25329 4.62415 3.63776 5.28371 3.20444 6.0602C2.77112 6.8367 2.53299 7.70687 2.51055 8.5958M8.00013 2.38747V1.4458M8.3918 12.3958C10.5576 12.3696 10.8351 12.2791 14.8397 11.2625C15.0918 11.1987 15.2789 11.3279 15.3339 11.4746C15.3901 11.6246 15.3672 11.8904 15.0251 11.9791C14.3501 12.1541 10.1418 14.0958 9.18346 14.0958C8.22513 14.0958 5.43346 13.8875 4.38346 13.8875C3.33346 13.8875 2.10846 14.5541 2.10846 14.5541C1.2668 13.7708 0.733464 12.4708 0.591797 11.0625H10.9918C11.421 11.0625 11.5585 11.6625 11.1918 11.8291C10.648 12.0762 9.72513 12.3958 8.3918 12.3958Z" stroke="#E85C05" stroke-linecap="round" stroke-linejoin="round"/>
</svg>
