<svg width="16" height="17" viewBox="0 0 16 17" fill="none" xmlns="http://www.w3.org/2000/svg">
<path d="M11.3996 11.1191C11.3322 11.236 11.235 11.3329 11.1179 11.3998C11.0007 11.4668 10.8679 11.5013 10.733 11.5H5.26739C5.13248 11.5013 4.99965 11.4668 4.88252 11.3998C4.76538 11.3329 4.66816 11.236 4.60082 11.1191C4.53512 11.0066 4.50049 10.8787 4.50049 10.7485C4.50049 10.6182 4.53512 10.4903 4.60082 10.3778L7.33301 5.6319C7.4013 5.51562 7.49879 5.41921 7.61582 5.35223C7.73285 5.28524 7.86535 5.25 8.0002 5.25C8.13504 5.25 8.26755 5.28524 8.38458 5.35223C8.5016 5.41921 8.5991 5.51562 8.66739 5.6319L11.4002 10.3778C11.4658 10.4904 11.5003 10.6183 11.5002 10.7485C11.5001 10.8788 11.4654 11.0067 11.3996 11.1191Z" fill="#FF0000"/>
<rect x="0.5" y="1" width="15" height="15" rx="3.5" stroke="#FF0000"/>
</svg>
