<svg width="16" height="16" viewBox="0 0 16 16" fill="none" xmlns="http://www.w3.org/2000/svg">
<path d="M8.5 4.66675C8.5 4.53414 8.44732 4.40696 8.35355 4.31319C8.25979 4.21943 8.13261 4.16675 8 4.16675C7.86739 4.16675 7.74022 4.21943 7.64645 4.31319C7.55268 4.40696 7.5 4.53414 7.5 4.66675V8.00008C7.49996 8.08485 7.52148 8.16824 7.56253 8.24241C7.60358 8.31658 7.66282 8.3791 7.73467 8.42408L9.73467 9.67408C9.84712 9.74445 9.98292 9.76727 10.1122 9.73751C10.1762 9.72278 10.2367 9.69558 10.2902 9.65748C10.3437 9.61937 10.3892 9.5711 10.424 9.51542C10.4588 9.45973 10.4824 9.39774 10.4933 9.33296C10.5041 9.26818 10.5022 9.2019 10.4874 9.13789C10.4727 9.07388 10.4455 9.0134 10.4074 8.9599C10.3693 8.9064 10.321 8.86093 10.2653 8.82608L8.5 7.72275V4.66675Z" fill="#424242"/>
<path fill-rule="evenodd" clip-rule="evenodd" d="M7.99984 2.16675C6.45274 2.16675 4.96901 2.78133 3.87505 3.87529C2.78109 4.96925 2.1665 6.45298 2.1665 8.00008C2.1665 9.54718 2.78109 11.0309 3.87505 12.1249C4.96901 13.2188 6.45274 13.8334 7.99984 13.8334C9.54693 13.8334 11.0307 13.2188 12.1246 12.1249C13.2186 11.0309 13.8332 9.54718 13.8332 8.00008C13.8332 6.45298 13.2186 4.96925 12.1246 3.87529C11.0307 2.78133 9.54693 2.16675 7.99984 2.16675ZM3.1665 8.00008C3.1665 7.36536 3.29152 6.73685 3.53442 6.15044C3.77732 5.56404 4.13334 5.03121 4.58215 4.5824C5.03097 4.13358 5.56379 3.77756 6.1502 3.53466C6.73661 3.29177 7.36511 3.16675 7.99984 3.16675C8.63456 3.16675 9.26307 3.29177 9.84947 3.53466C10.4359 3.77756 10.9687 4.13358 11.4175 4.5824C11.8663 5.03121 12.2224 5.56404 12.4653 6.15044C12.7082 6.73685 12.8332 7.36536 12.8332 8.00008C12.8332 9.28196 12.3239 10.5113 11.4175 11.4178C10.5111 12.3242 9.28172 12.8334 7.99984 12.8334C6.71796 12.8334 5.48858 12.3242 4.58215 11.4178C3.67573 10.5113 3.1665 9.28196 3.1665 8.00008Z" fill="#424242"/>
</svg>
