<svg width="24" height="24" viewBox="0 0 24 24" fill="none" xmlns="http://www.w3.org/2000/svg">
<path d="M10.7722 18.3002C9.2829 18.3002 7.82705 17.8586 6.58875 17.0312C5.35044 16.2038 4.38531 15.0278 3.81538 13.6518C3.24545 12.2759 3.09633 10.7619 3.38688 9.30121C3.67742 7.84053 4.39459 6.49881 5.44768 5.44572C6.50077 4.39263 7.84248 3.67547 9.30316 3.38492C10.7638 3.09438 12.2779 3.2435 13.6538 3.81342C15.0297 4.38335 16.2057 5.34849 17.0332 6.58679C17.8606 7.8251 18.3022 9.28094 18.3022 10.7702C18.3022 11.7591 18.1074 12.7383 17.729 13.6518C17.3506 14.5654 16.7959 15.3955 16.0967 16.0948C15.3975 16.794 14.5674 17.3486 13.6538 17.727C12.7402 18.1055 11.761 18.3002 10.7722 18.3002ZM10.7722 4.75024C9.5855 4.75024 8.42546 5.10213 7.43877 5.76142C6.45207 6.42071 5.68304 7.35778 5.22891 8.45414C4.77479 9.55049 4.65597 10.7569 4.88748 11.9208C5.11899 13.0847 5.69044 14.1538 6.52955 14.9929C7.36867 15.832 8.43776 16.4034 9.60165 16.6349C10.7655 16.8665 11.9719 16.7476 13.0683 16.2935C14.1646 15.8394 15.1017 15.0704 15.761 14.0837C16.4203 13.097 16.7722 11.9369 16.7722 10.7502C16.7722 9.15894 16.14 7.63282 15.0148 6.5076C13.8896 5.38238 12.3635 4.75024 10.7722 4.75024Z" fill="#FF6B00"/>
<path d="M20.0019 20.75C19.9034 20.7504 19.8057 20.7312 19.7147 20.6934C19.6237 20.6557 19.5412 20.6001 19.4719 20.53L15.3419 16.4C15.2094 16.2578 15.1373 16.0697 15.1407 15.8754C15.1442 15.6811 15.2229 15.4958 15.3603 15.3583C15.4977 15.2209 15.6831 15.1422 15.8774 15.1388C16.0717 15.1354 16.2597 15.2075 16.4019 15.34L20.5319 19.47C20.6724 19.6106 20.7513 19.8012 20.7513 20C20.7513 20.1987 20.6724 20.3893 20.5319 20.53C20.4627 20.6001 20.3801 20.6557 20.2891 20.6934C20.1981 20.7312 20.1005 20.7504 20.0019 20.75Z" fill="#FF6B00"/>
</svg>
