<svg width="50" height="21" viewBox="0 0 50 21" fill="none" xmlns="http://www.w3.org/2000/svg">
<rect width="50" height="21" rx="4" fill="#01B513"/>
<path d="M11.0678 14.4645C12.4046 13.5847 14.1715 13.5881 15.5067 14.4704C15.9131 14.7392 16.4105 14.3418 16.3035 13.8393L16.1836 13.277C15.8927 11.9133 16.333 10.4965 17.3456 9.53782L17.678 9.22317C18.0363 8.88427 17.8438 8.24151 17.3731 8.20061L17.2548 8.18964C15.7445 8.04957 14.4434 7.06731 13.8949 5.65317L13.7793 5.35497C13.5974 4.88168 12.977 4.88168 12.7952 5.35497L12.6805 5.64996C12.1314 7.06266 10.8309 8.04363 9.32172 8.1836L9.20133 8.19477C8.7307 8.23567 8.53817 8.87842 8.89649 9.21733L9.22885 9.53197C10.2415 10.4906 10.6818 11.9074 10.3909 13.2712L10.2709 13.8335C10.164 14.336 10.6613 14.7333 11.0678 14.4645Z" fill="white"/>
<path d="M26.2488 12.7V11.32L29.4088 6.8H31.3188V11.22H32.1388V12.7H31.3188V14H29.6088V12.7H26.2488ZM29.7288 8.68L28.0488 11.22H29.7288V8.68ZM33.9464 14.08C33.6464 14.08 33.3997 13.9933 33.2064 13.82C33.0197 13.64 32.9264 13.42 32.9264 13.16C32.9264 12.8933 33.0197 12.67 33.2064 12.49C33.3997 12.31 33.6464 12.22 33.9464 12.22C34.2397 12.22 34.4797 12.31 34.6664 12.49C34.8597 12.67 34.9564 12.8933 34.9564 13.16C34.9564 13.42 34.8597 13.64 34.6664 13.82C34.4797 13.9933 34.2397 14.08 33.9464 14.08ZM40.9386 8.19H37.8186V9.57C37.952 9.42333 38.1386 9.30333 38.3786 9.21C38.6186 9.11667 38.8786 9.07 39.1586 9.07C39.6586 9.07 40.072 9.18333 40.3986 9.41C40.732 9.63667 40.9753 9.93 41.1286 10.29C41.282 10.65 41.3586 11.04 41.3586 11.46C41.3586 12.24 41.1386 12.86 40.6986 13.32C40.2586 13.7733 39.6386 14 38.8386 14C38.3053 14 37.842 13.91 37.4486 13.73C37.0553 13.5433 36.752 13.2867 36.5386 12.96C36.3253 12.6333 36.2086 12.2567 36.1886 11.83H37.8586C37.8986 12.0367 37.9953 12.21 38.1486 12.35C38.302 12.4833 38.512 12.55 38.7786 12.55C39.092 12.55 39.3253 12.45 39.4786 12.25C39.632 12.05 39.7086 11.7833 39.7086 11.45C39.7086 11.1233 39.6286 10.8733 39.4686 10.7C39.3086 10.5267 39.0753 10.44 38.7686 10.44C38.542 10.44 38.3553 10.4967 38.2086 10.61C38.062 10.7167 37.9653 10.86 37.9186 11.04H36.2686V6.69H40.9386V8.19Z" fill="white"/>
</svg>
