<svg width="28" height="28" viewBox="0 0 28 28" fill="none" xmlns="http://www.w3.org/2000/svg">
<rect width="28" height="28" rx="2" fill="white"/>
<path d="M20.897 10.2678L21.2244 9.19422C21.2544 9.09629 21.3033 9.00521 21.3685 8.9262C21.4336 8.84718 21.5137 8.78177 21.6041 8.7337C21.6945 8.68562 21.7935 8.65583 21.8955 8.64602C21.9974 8.63622 22.1003 8.64658 22.1982 8.67653C22.2962 8.70648 22.3872 8.75542 22.4662 8.82056C22.5453 8.88571 22.6107 8.96578 22.6587 9.0562C22.7068 9.14663 22.7366 9.24564 22.7464 9.34757C22.7562 9.44951 22.7459 9.55238 22.7159 9.65031L21.8037 12.6325C21.7433 12.8301 21.6068 12.9957 21.4244 13.0927C21.2419 13.1898 21.0284 13.2105 20.8307 13.1502L17.8485 12.238C17.7486 12.2098 17.6552 12.162 17.574 12.0973C17.4927 12.0326 17.4253 11.9523 17.3755 11.8611C17.3257 11.7699 17.2947 11.6698 17.2841 11.5664C17.2736 11.4631 17.2839 11.3587 17.3143 11.2594C17.3446 11.1601 17.3946 11.0678 17.4611 10.9881C17.5276 10.9083 17.6094 10.8426 17.7017 10.7949C17.794 10.7472 17.8948 10.7184 17.9984 10.7103C18.1019 10.7021 18.206 10.7147 18.3046 10.7473L19.6082 11.1457C19.0319 10.2716 18.2281 9.57132 17.2833 9.12022C16.3386 8.66911 15.2886 8.4843 14.2466 8.58568C13.2046 8.68706 12.2099 9.07079 11.3698 9.69554C10.5297 10.3203 9.87597 11.1624 9.47898 12.1312L9.27627 12.6247C9.23941 12.7221 9.18339 12.8112 9.11154 12.8866C9.03969 12.962 8.95345 13.0222 8.85792 13.0638C8.7624 13.1053 8.65952 13.1272 8.55536 13.1284C8.4512 13.1295 8.34788 13.1097 8.25149 13.0702C8.15511 13.0307 8.06761 12.9723 7.99417 12.8984C7.92073 12.8245 7.86284 12.7367 7.82392 12.6401C7.78499 12.5435 7.76582 12.44 7.76754 12.3359C7.76926 12.2317 7.79183 12.129 7.83392 12.0337L8.03663 11.5402C8.54046 10.3109 9.36961 9.24205 10.4351 8.44842C11.5005 7.65479 12.762 7.16635 14.0841 7.03554C15.4061 6.90473 16.7389 7.13651 17.9392 7.70597C19.1395 8.27543 20.162 9.16107 20.897 10.2678ZM8.79523 18.5422L8.54028 19.5644C8.51747 19.6657 8.47463 19.7615 8.41427 19.8461C8.35391 19.9307 8.27726 20.0023 8.18881 20.0569C8.10037 20.1114 8.00191 20.1477 7.89924 20.1636C7.79656 20.1796 7.69174 20.1748 7.59093 20.1497C7.49011 20.1245 7.39534 20.0795 7.31219 20.0172C7.22903 19.9549 7.15916 19.8766 7.1067 19.7869C7.05423 19.6972 7.02022 19.5979 7.00666 19.4949C6.99311 19.3919 7.00028 19.2872 7.02776 19.187L7.78168 16.162C7.80712 16.059 7.85331 15.9622 7.91742 15.8777C7.98154 15.7932 8.06223 15.7226 8.15455 15.6704C8.24688 15.6181 8.3489 15.5853 8.45437 15.5738C8.55984 15.5623 8.66654 15.5725 8.76794 15.6037L11.7524 16.3475C11.9531 16.3976 12.1257 16.5253 12.2322 16.7026C12.3387 16.8798 12.3705 17.0922 12.3204 17.2929C12.2704 17.4935 12.1427 17.6661 11.9654 17.7726C11.7881 17.8791 11.5758 17.9109 11.3751 17.8608L9.98264 17.5139C10.5779 18.4252 11.4193 19.149 12.4093 19.6015C13.3993 20.054 14.4973 20.2165 15.5759 20.0702C16.6545 19.924 17.6696 19.4749 18.5033 18.7752C19.3371 18.0754 19.9554 17.1536 20.2865 16.1167C20.3494 15.9197 20.4879 15.7557 20.6717 15.6608C20.7627 15.6138 20.8621 15.5852 20.9642 15.5766C21.0662 15.568 21.169 15.5796 21.2665 15.6108C21.3641 15.6419 21.4546 15.6919 21.5328 15.758C21.6111 15.8241 21.6755 15.905 21.7225 15.996C21.7695 16.087 21.7981 16.1863 21.8067 16.2884C21.8153 16.3905 21.8037 16.4932 21.7725 16.5908C21.448 17.609 20.9043 18.5437 20.1796 19.3292C19.4549 20.1146 18.5669 20.7317 17.578 21.1369C16.0373 21.7681 14.3274 21.855 12.7306 21.3833C11.1338 20.9116 9.7456 19.9094 8.79523 18.5422Z" fill="#FF0000"/>
</svg>
