<svg width="10" height="10" viewBox="0 0 10 10" fill="none" xmlns="http://www.w3.org/2000/svg">
<path d="M3.0678 9.46452C4.40456 8.58469 6.17153 8.58808 7.50667 9.47036C7.91313 9.73915 8.41049 9.34181 8.30353 8.8393L8.1836 8.27702C7.89271 6.91328 8.33301 5.49647 9.34562 4.53782L9.67798 4.22317C10.0363 3.88427 9.84377 3.24151 9.37314 3.20061L9.25484 3.18964C7.74454 3.04957 6.4434 2.06731 5.89492 0.653173L5.77926 0.354974C5.59742 -0.118325 4.97705 -0.118325 4.79522 0.354974L4.68055 0.649961C4.13139 2.06266 2.83093 3.04363 1.32172 3.1836L1.20133 3.19477C0.730703 3.23567 0.538173 3.87842 0.896492 4.21733L1.22885 4.53197C2.24147 5.49063 2.68176 6.90743 2.39087 8.27118L2.27094 8.83346C2.16398 9.33597 2.66135 9.73331 3.0678 9.46452Z" fill="white"/>
</svg>
